# xmcd
#
# Track frame offsets: 
#        150
#        13636
#        33750
#        49562
#        67792
#        88257
#        104267
#        123087
#        144135
#        163170
#        180312
#        199365
#        219197
#        239065
#        254832
#
# Disc length: 3609 seconds
#
# Revision: 5
# Processed by: cddbd v1.4PL0 Copyright (c) Steve Scherf et al.
# Submitted via: ExactAudioCopy v0.90b4
#
DISCID=c80e170f
DTITLE=Reba McEntire - I'll Be
DYEAR=2000
DGENRE=Country
TTITLE0=If I Fell
TTITLE1=I'll Be
TTITLE2=What If
TTITLE3=By The Time I Get To Phoenix
TTITLE4=On My Own
TTITLE5=You're No Good
TTITLE6=Starting Over Again
TTITLE7=Please Come To Boston
TTITLE8=Ring On Her Finger, Time On Her Hands
TTITLE9=New Fool At An Old Game
TTITLE10=I Won't Mention It Again
TTITLE11=Five Hundred Miles Away From Home
TTITLE12=Talking In Your Sleep
TTITLE13=What Do You Say
TTITLE14=We're So Good Together (Album Version)
EXTD=
EXTT0=
EXTT1=
EXTT2=
EXTT3=
EXTT4=
EXTT5=
EXTT6=
EXTT7=
EXTT8=
EXTT9=
EXTT10=
EXTT11=
EXTT12=
EXTT13=
EXTT14=
PLAYORDER=
